name ./resultDataOpenSim/trcMotMarkerGrf/sub09/grf-05-02.mot
datacolumns 19
datarows 15
range 1.02800000 1.08400000
endheader

                time	     ground_force_vx	     ground_force_vy	     ground_force_vz	     ground_force_px	     ground_force_py	     ground_force_pz	   l_ground_force_vx	   l_ground_force_vy	   l_ground_force_vz	   l_ground_force_px	   l_ground_force_py	   l_ground_force_pz	     ground_torque_x	     ground_torque_y	     ground_torque_z	   l_ground_torque_x	   l_ground_torque_y	   l_ground_torque_z	
          1.02800000	          0.00000000	          0.00000000	          0.00000000	          0.00000000	          0.00000000	          0.00000000	         10.03546755	        391.76256345	          7.00056283	          0.21847246	         -0.10000000	          0.06490615	          0.00000000	          0.00000000	          0.00000000	          0.00000000	         -3.30630723	          0.00000000	
          1.03200000	          0.00000000	          0.00000000	          0.00000000	          0.00000000	          0.00000000	          0.00000000	         12.97815114	        398.30066456	          6.85165485	          0.21852977	         -0.10000000	          0.06509206	          0.00000000	          0.00000000	          0.00000000	          0.00000000	         -3.47809490	          0.00000000	
          1.03600000	          0.00000000	          0.00000000	          0.00000000	          0.00000000	          0.00000000	          0.00000000	         16.07989260	        405.90014914	          6.58932968	          0.21841346	         -0.10000000	          0.06518834	          0.00000000	          0.00000000	          0.00000000	          0.00000000	         -3.66203420	          0.00000000	
          1.04000000	          0.00000000	          0.00000000	          0.00000000	          0.00000000	          0.00000000	          0.00000000	         19.23598400	        414.53461349	          6.28397400	          0.21814708	         -0.10000000	          0.06522591	          0.00000000	          0.00000000	          0.00000000	          0.00000000	         -3.85169081	          0.00000000	
          1.04400000	          0.00000000	          0.00000000	          0.00000000	          0.00000000	          0.00000000	          0.00000000	         22.38179046	        424.18955403	          6.01648157	          0.21785417	         -0.10000000	          0.06527098	          0.00000000	          0.00000000	          0.00000000	          0.00000000	         -4.03973325	          0.00000000	
          1.04800000	          0.00000000	          0.00000000	          0.00000000	          0.00000000	          0.00000000	          0.00000000	         25.49062818	        434.88355847	          5.85353893	          0.21766045	         -0.10000000	          0.06537859	          0.00000000	          0.00000000	          0.00000000	          0.00000000	         -4.21956113	          0.00000000	
          1.05200000	          0.00000000	          0.00000000	          0.00000000	          0.00000000	          0.00000000	          0.00000000	         28.55415048	        446.65263107	          5.83121561	          0.21763268	         -0.10000000	          0.06556468	          0.00000000	          0.00000000	          0.00000000	          0.00000000	         -4.38626513	          0.00000000	
          1.05600000	          0.00000000	          0.00000000	          0.00000000	          0.00000000	          0.00000000	          0.00000000	         31.56902329	        459.53809931	          5.95371447	          0.21776111	         -0.10000000	          0.06580818	          0.00000000	          0.00000000	          0.00000000	          0.00000000	         -4.53678475	          0.00000000	
          1.06000000	          0.00000000	          0.00000000	          0.00000000	          0.00000000	          0.00000000	          0.00000000	         34.54493166	        473.55200338	          6.20731465	          0.21796312	         -0.10000000	          0.06606179	          0.00000000	          0.00000000	          0.00000000	          0.00000000	         -4.66955515	          0.00000000	
          1.06400000	          0.00000000	          0.00000000	          0.00000000	          0.00000000	          0.00000000	          0.00000000	         37.52236103	        488.58436629	          6.57476278	          0.21813172	         -0.10000000	          0.06627349	          0.00000000	          0.00000000	          0.00000000	          0.00000000	         -4.78410987	          0.00000000	
          1.06800000	          0.00000000	          0.00000000	          0.00000000	          0.00000000	          0.00000000	          0.00000000	         40.58044483	        504.34040418	          7.03959035	          0.21821341	         -0.10000000	          0.06641212	          0.00000000	          0.00000000	          0.00000000	          0.00000000	         -4.88089250	          0.00000000	
          1.07200000	          0.00000000	          0.00000000	          0.00000000	          0.00000000	          0.00000000	          0.00000000	         43.82909798	        520.43800159	          7.58675672	          0.21822653	         -0.10000000	          0.06647568	          0.00000000	          0.00000000	          0.00000000	          0.00000000	         -4.96114851	          0.00000000	
          1.07600000	          0.00000000	          0.00000000	          0.00000000	          0.00000000	          0.00000000	          0.00000000	         47.38592445	        536.62088536	          8.20488941	          0.21822600	         -0.10000000	          0.06649908	          0.00000000	          0.00000000	          0.00000000	          0.00000000	         -5.02660986	          0.00000000	
          1.08000000	          0.00000000	          0.00000000	          0.00000000	          0.00000000	          0.00000000	          0.00000000	         51.34093097	        552.85751124	          8.88655672	          0.21828987	         -0.10000000	          0.06653826	          0.00000000	          0.00000000	          0.00000000	          0.00000000	         -5.07888586	          0.00000000	
          1.08400000	          0.00000000	          0.00000000	          0.00000000	          0.00000000	          0.00000000	          0.00000000	         55.72444877	        569.23218522	          9.63140053	          0.21845318	         -0.10000000	          0.06662028	          0.00000000	          0.00000000	          0.00000000	          0.00000000	         -5.11878131	          0.00000000	
